<svg width="360" height="420" viewBox="0 0 360 420" xmlns="http://www.w3.org/2000/svg">
<rect x="10" y="10" width="340" height="400" fill="#fff" stroke="#0c1a3a" stroke-width="2"/><line x1="180" y1="50" x2="180" y2="370" stroke="#333" stroke-width="0.6" stroke-dasharray="2,2"/><line x1="20" y1="210" x2="340" y2="210" stroke="#333" stroke-width="0.6" stroke-dasharray="2,2"/><line x1="67" y1="97" x2="293" y2="323" stroke="#333" stroke-width="0.5" stroke-dasharray="2,2"/><line x1="293" y1="97" x2="67" y2="323" stroke="#333" stroke-width="0.5" stroke-dasharray="2,2"/><polygon points="180.0,155.0 169.5,90.5 190.5,90.5" fill="#1a3fd6" stroke="#000" stroke-width="1.2"/><rect x="169.0" y="59.0" width="22" height="22" fill="#fff" stroke="#1a3fd6" stroke-width="2.2"/><text x="180.0" y="75.0" text-anchor="middle" font-family="Arial,sans-serif" font-size="14" font-weight="900" fill="#1a3fd6">A</text><polygon points="201.0,159.2 216.1,95.6 235.4,103.6" fill="#8a8a8a" stroke="#000" stroke-width="1.2"/><rect x="222.6" y="69.7" width="22" height="22" fill="#fff" stroke="#8a8a8a" stroke-width="2.2"/><text x="233.6" y="85.7" text-anchor="middle" font-family="Arial,sans-serif" font-size="14" font-weight="900" fill="#8a8a8a">B</text><polygon points="218.9,171.1 257.1,118.1 271.9,132.9" fill="#2ecc40" stroke="#000" stroke-width="1.2"/><rect x="268.0" y="100.0" width="22" height="22" fill="#fff" stroke="#2ecc40" stroke-width="2.2"/><text x="279.0" y="116.0" text-anchor="middle" font-family="Arial,sans-serif" font-size="14" font-weight="900" fill="#2ecc40">C</text><polygon points="230.8,189.0 286.4,154.6 294.4,173.9" fill="#ff8c1a" stroke="#000" stroke-width="1.2"/><rect x="298.3" y="145.4" width="22" height="22" fill="#fff" stroke="#ff8c1a" stroke-width="2.2"/><text x="309.3" y="161.4" text-anchor="middle" font-family="Arial,sans-serif" font-size="14" font-weight="900" fill="#ff8c1a">D</text><polygon points="300.0,210.0 234.8,205.2 234.8,214.8" fill="#e6007a" stroke="#000" stroke-width="1.2"/><rect x="309.0" y="199.0" width="22" height="22" fill="#fff" stroke="#e6007a" stroke-width="2.2"/><text x="320.0" y="215.0" text-anchor="middle" font-family="Arial,sans-serif" font-size="14" font-weight="900" fill="#e6007a">E</text><polygon points="230.8,231.0 294.4,246.1 286.4,265.4" fill="#ff8c1a" stroke="#000" stroke-width="1.2"/><rect x="298.3" y="252.6" width="22" height="22" fill="#fff" stroke="#ff8c1a" stroke-width="2.2"/><text x="309.3" y="268.6" text-anchor="middle" font-family="Arial,sans-serif" font-size="14" font-weight="900" fill="#ff8c1a">F</text><polygon points="218.9,248.9 271.9,287.1 257.1,301.9" fill="#2ecc40" stroke="#000" stroke-width="1.2"/><rect x="268.0" y="298.0" width="22" height="22" fill="#fff" stroke="#2ecc40" stroke-width="2.2"/><text x="279.0" y="314.0" text-anchor="middle" font-family="Arial,sans-serif" font-size="14" font-weight="900" fill="#2ecc40">G</text><polygon points="201.0,260.8 235.4,316.4 216.1,324.4" fill="#8a8a8a" stroke="#000" stroke-width="1.2"/><rect x="222.6" y="328.3" width="22" height="22" fill="#fff" stroke="#8a8a8a" stroke-width="2.2"/><text x="233.6" y="344.3" text-anchor="middle" font-family="Arial,sans-serif" font-size="14" font-weight="900" fill="#8a8a8a">H</text><polygon points="180.0,330.0 184.8,264.8 175.2,264.8" fill="#e6007a" stroke="#000" stroke-width="1.2"/><rect x="169.0" y="339.0" width="22" height="22" fill="#fff" stroke="#e6007a" stroke-width="2.2"/><text x="180.0" y="355.0" text-anchor="middle" font-family="Arial,sans-serif" font-size="14" font-weight="900" fill="#e6007a">I</text><polygon points="159.0,260.8 143.9,324.4 124.6,316.4" fill="#8a8a8a" stroke="#000" stroke-width="1.2"/><rect x="115.4" y="328.3" width="22" height="22" fill="#fff" stroke="#8a8a8a" stroke-width="2.2"/><text x="126.4" y="344.3" text-anchor="middle" font-family="Arial,sans-serif" font-size="14" font-weight="900" fill="#8a8a8a">J</text><polygon points="141.1,248.9 102.9,301.9 88.1,287.1" fill="#2ecc40" stroke="#000" stroke-width="1.2"/><rect x="70.0" y="298.0" width="22" height="22" fill="#fff" stroke="#2ecc40" stroke-width="2.2"/><text x="81.0" y="314.0" text-anchor="middle" font-family="Arial,sans-serif" font-size="14" font-weight="900" fill="#2ecc40">K</text><polygon points="129.2,231.0 73.6,265.4 65.6,246.1" fill="#ff8c1a" stroke="#000" stroke-width="1.2"/><rect x="39.7" y="252.6" width="22" height="22" fill="#fff" stroke="#ff8c1a" stroke-width="2.2"/><text x="50.7" y="268.6" text-anchor="middle" font-family="Arial,sans-serif" font-size="14" font-weight="900" fill="#ff8c1a">L</text><polygon points="125.0,210.0 60.5,220.5 60.5,199.5" fill="#1a3fd6" stroke="#000" stroke-width="1.2"/><rect x="29.0" y="199.0" width="22" height="22" fill="#fff" stroke="#1a3fd6" stroke-width="2.2"/><text x="40.0" y="215.0" text-anchor="middle" font-family="Arial,sans-serif" font-size="14" font-weight="900" fill="#1a3fd6">M</text><polygon points="129.2,189.0 65.6,173.9 73.6,154.6" fill="#ff8c1a" stroke="#000" stroke-width="1.2"/><rect x="39.7" y="145.4" width="22" height="22" fill="#fff" stroke="#ff8c1a" stroke-width="2.2"/><text x="50.7" y="161.4" text-anchor="middle" font-family="Arial,sans-serif" font-size="14" font-weight="900" fill="#ff8c1a">N</text><polygon points="141.1,171.1 88.1,132.9 102.9,118.1" fill="#2ecc40" stroke="#000" stroke-width="1.2"/><rect x="70.0" y="100.0" width="22" height="22" fill="#fff" stroke="#2ecc40" stroke-width="2.2"/><text x="81.0" y="116.0" text-anchor="middle" font-family="Arial,sans-serif" font-size="14" font-weight="900" fill="#2ecc40">O</text><polygon points="159.0,159.2 124.6,103.6 143.9,95.6" fill="#8a8a8a" stroke="#000" stroke-width="1.2"/><rect x="115.4" y="69.7" width="22" height="22" fill="#fff" stroke="#8a8a8a" stroke-width="2.2"/><text x="126.4" y="85.7" text-anchor="middle" font-family="Arial,sans-serif" font-size="14" font-weight="900" fill="#8a8a8a">P</text>
</svg>