<svg width="360" height="420" viewBox="0 0 360 420" xmlns="http://www.w3.org/2000/svg">
<rect x="10" y="10" width="340" height="400" fill="#fff" stroke="#0c1a3a" stroke-width="2"/><line x1="180" y1="22" x2="180" y2="398" stroke="#333" stroke-width="0.6" stroke-dasharray="2,2"/><line x1="-8" y1="210" x2="368" y2="210" stroke="#333" stroke-width="0.6" stroke-dasharray="2,2"/><line x1="47" y1="77" x2="313" y2="343" stroke="#333" stroke-width="0.5" stroke-dasharray="2,2"/><line x1="313" y1="77" x2="47" y2="343" stroke="#333" stroke-width="0.5" stroke-dasharray="2,2"/><polygon points="180.0,142.0 167.1,62.6 192.9,62.6" fill="#1a3fd6" stroke="#000" stroke-width="1.2"/><rect x="169.0" y="31.0" width="22" height="22" fill="#fff" stroke="#1a3fd6" stroke-width="2.2"/><text x="180.0" y="47.0" text-anchor="middle" font-family="Arial,sans-serif" font-size="14" font-weight="900" fill="#1a3fd6">A</text><polygon points="206.0,147.2 224.5,68.8 248.3,78.7" fill="#8a8a8a" stroke="#000" stroke-width="1.2"/><rect x="233.3" y="43.8" width="22" height="22" fill="#fff" stroke="#8a8a8a" stroke-width="2.2"/><text x="244.3" y="59.8" text-anchor="middle" font-family="Arial,sans-serif" font-size="14" font-weight="900" fill="#8a8a8a">B</text><polygon points="228.1,161.9 275.1,96.6 293.4,114.9" fill="#2ecc40" stroke="#000" stroke-width="1.2"/><rect x="287.8" y="80.2" width="22" height="22" fill="#fff" stroke="#2ecc40" stroke-width="2.2"/><text x="298.8" y="96.2" text-anchor="middle" font-family="Arial,sans-serif" font-size="14" font-weight="900" fill="#2ecc40">C</text><polygon points="242.8,184.0 311.3,141.7 321.2,165.5" fill="#ff8c1a" stroke="#000" stroke-width="1.2"/><rect x="324.2" y="134.7" width="22" height="22" fill="#fff" stroke="#ff8c1a" stroke-width="2.2"/><text x="335.2" y="150.7" text-anchor="middle" font-family="Arial,sans-serif" font-size="14" font-weight="900" fill="#ff8c1a">D</text><polygon points="328.0,210.0 247.7,204.1 247.7,215.9" fill="#e6007a" stroke="#000" stroke-width="1.2"/><rect x="337.0" y="199.0" width="22" height="22" fill="#fff" stroke="#e6007a" stroke-width="2.2"/><text x="348.0" y="215.0" text-anchor="middle" font-family="Arial,sans-serif" font-size="14" font-weight="900" fill="#e6007a">E</text><polygon points="242.8,236.0 321.2,254.5 311.3,278.3" fill="#ff8c1a" stroke="#000" stroke-width="1.2"/><rect x="324.2" y="263.3" width="22" height="22" fill="#fff" stroke="#ff8c1a" stroke-width="2.2"/><text x="335.2" y="279.3" text-anchor="middle" font-family="Arial,sans-serif" font-size="14" font-weight="900" fill="#ff8c1a">F</text><polygon points="228.1,258.1 293.4,305.1 275.1,323.4" fill="#2ecc40" stroke="#000" stroke-width="1.2"/><rect x="287.8" y="317.8" width="22" height="22" fill="#fff" stroke="#2ecc40" stroke-width="2.2"/><text x="298.8" y="333.8" text-anchor="middle" font-family="Arial,sans-serif" font-size="14" font-weight="900" fill="#2ecc40">G</text><polygon points="206.0,272.8 248.3,341.3 224.5,351.2" fill="#8a8a8a" stroke="#000" stroke-width="1.2"/><rect x="233.3" y="354.2" width="22" height="22" fill="#fff" stroke="#8a8a8a" stroke-width="2.2"/><text x="244.3" y="370.2" text-anchor="middle" font-family="Arial,sans-serif" font-size="14" font-weight="900" fill="#8a8a8a">H</text><polygon points="180.0,358.0 185.9,277.7 174.1,277.7" fill="#e6007a" stroke="#000" stroke-width="1.2"/><rect x="169.0" y="367.0" width="22" height="22" fill="#fff" stroke="#e6007a" stroke-width="2.2"/><text x="180.0" y="383.0" text-anchor="middle" font-family="Arial,sans-serif" font-size="14" font-weight="900" fill="#e6007a">I</text><polygon points="154.0,272.8 135.5,351.2 111.7,341.3" fill="#8a8a8a" stroke="#000" stroke-width="1.2"/><rect x="104.7" y="354.2" width="22" height="22" fill="#fff" stroke="#8a8a8a" stroke-width="2.2"/><text x="115.7" y="370.2" text-anchor="middle" font-family="Arial,sans-serif" font-size="14" font-weight="900" fill="#8a8a8a">J</text><polygon points="131.9,258.1 84.9,323.4 66.6,305.1" fill="#2ecc40" stroke="#000" stroke-width="1.2"/><rect x="50.2" y="317.8" width="22" height="22" fill="#fff" stroke="#2ecc40" stroke-width="2.2"/><text x="61.2" y="333.8" text-anchor="middle" font-family="Arial,sans-serif" font-size="14" font-weight="900" fill="#2ecc40">K</text><polygon points="117.2,236.0 48.7,278.3 38.8,254.5" fill="#ff8c1a" stroke="#000" stroke-width="1.2"/><rect x="13.8" y="263.3" width="22" height="22" fill="#fff" stroke="#ff8c1a" stroke-width="2.2"/><text x="24.8" y="279.3" text-anchor="middle" font-family="Arial,sans-serif" font-size="14" font-weight="900" fill="#ff8c1a">L</text><polygon points="112.0,210.0 32.6,222.9 32.6,197.1" fill="#1a3fd6" stroke="#000" stroke-width="1.2"/><rect x="1.0" y="199.0" width="22" height="22" fill="#fff" stroke="#1a3fd6" stroke-width="2.2"/><text x="12.0" y="215.0" text-anchor="middle" font-family="Arial,sans-serif" font-size="14" font-weight="900" fill="#1a3fd6">M</text><polygon points="117.2,184.0 38.8,165.5 48.7,141.7" fill="#ff8c1a" stroke="#000" stroke-width="1.2"/><rect x="13.8" y="134.7" width="22" height="22" fill="#fff" stroke="#ff8c1a" stroke-width="2.2"/><text x="24.8" y="150.7" text-anchor="middle" font-family="Arial,sans-serif" font-size="14" font-weight="900" fill="#ff8c1a">N</text><polygon points="131.9,161.9 66.6,114.9 84.9,96.6" fill="#2ecc40" stroke="#000" stroke-width="1.2"/><rect x="50.2" y="80.2" width="22" height="22" fill="#fff" stroke="#2ecc40" stroke-width="2.2"/><text x="61.2" y="96.2" text-anchor="middle" font-family="Arial,sans-serif" font-size="14" font-weight="900" fill="#2ecc40">O</text><polygon points="154.0,147.2 111.7,78.7 135.5,68.8" fill="#8a8a8a" stroke="#000" stroke-width="1.2"/><rect x="104.7" y="43.8" width="22" height="22" fill="#fff" stroke="#8a8a8a" stroke-width="2.2"/><text x="115.7" y="59.8" text-anchor="middle" font-family="Arial,sans-serif" font-size="14" font-weight="900" fill="#8a8a8a">P</text>
</svg>